<?xml version="1.0" encoding="UTF-8"?><svg id="a" xmlns="http://www.w3.org/2000/svg" viewBox="0 0 30.5182 25.241"><path id="b" d="m1.488,25.24c-.5357-.0006-.9695-.4353-.969-.971.0001-.1332.0277-.2649.081-.387l4.807-10.853c.7076-1.5105,2.1704-2.526,3.833-2.661h19.544c1.472,0,2.135,1.193,1.484,2.661l-4.852,10.954c-.3352.766-1.0929,1.2601-1.929,1.258l-21.999-.001ZM0,18.75V2.337C.0006,1.0465,1.0466.0006,2.337,0h6.151c.9313.0026,1.8091.4356,2.378,1.173l2.334,3.045c.5659.7404,1.4451,1.1739,2.377,1.172h6.947c1.2905.0006,2.3364,1.0465,2.337,2.337v.251c.0017.3623-.2907.6573-.653.659-.0007,0-.0013,0-.002,0H8.12c-1.6631.1337-3.1274,1.1474-3.838,2.657l-3.382,7.646c-.071.1711-.2388.2819-.424.28-.2573.0055-.4704-.1986-.4759-.4559-.0001-.0047-.0001-.0094,0-.0141Z" stroke="currentColor" fill="currentColor"/></svg>