<?xml version="1.0" encoding="UTF-8"?><svg id="a" xmlns="http://www.w3.org/2000/svg" viewBox="0 0 31.5182 26.241"><path id="b" d="m1.988,25.74c-.5357-.0006-.9695-.4353-.969-.971.0001-.1332.0277-.2649.081-.387l4.807-10.853c.7076-1.5105,2.1704-2.526,3.833-2.661h19.544c1.472,0,2.135,1.193,1.484,2.661l-4.852,10.954c-.3352.766-1.0929,1.2601-1.929,1.258,0,0-21.999-.001-21.999-.001Zm-1.488-6.49V2.837c.0006-1.2905,1.0466-2.3364,2.337-2.337h6.151c.9313.0026,1.8091.4356,2.378,1.173l2.334,3.045c.5659.7404,1.4451,1.1739,2.377,1.172h6.947c1.2905.0006,2.3364,1.0465,2.337,2.337v.251c.0017.3623-.2907.6573-.653.659H8.62c-1.6631.1337-3.1274,1.1474-3.838,2.657l-3.382,7.646c-.071.1711-.2388.2819-.424.28-.2573.0055-.4704-.1986-.4759-.4559,0-.0047,0-.0094,0-.0141h0Z" fill="#2aa198" stroke="#2aa198"/></svg>