<?xml version="1.0" encoding="UTF-8"?><svg id="b" xmlns="http://www.w3.org/2000/svg" viewBox="0 0 7836.1196 6449.4885"><g id="c"><rect x="2731.3281" y="4802.5475" width="2428.5181" height="1646.941" fill="#ccc"/><path d="m7664.9099,5079.0856H158.975C71.1814,5079.0856.0108,5007.9148.0108,4920.1166v-422.5772c0-87.7935,71.1707-158.9643,158.9643-158.9643h7505.9396c87.7935,0,158.9691,71.1708,158.9691,158.9643v422.5772c-.0047,87.7983-71.175,158.9691-158.9738,158.9691Z" fill="#999"/><path d="m7471.7862,4427.6837H364.3327c-199.5234,0-361.2671-161.7437-361.2671-361.2673V364.3327C3.0656,164.8093,164.8093,3.0656,364.3327,3.0656h7107.454c199.5236,0,361.2673,161.7436,361.2673,361.2671v3702.0837c-.0005,199.5236-161.7442,361.2673-361.2677,361.2673Z" stroke="#000" stroke-miterlimit="5.6889" stroke-width="6.1312"/><rect x="313.386" y="297.7008" width="7209.3471" height="3749.7048" fill="#fff" stroke="#000" stroke-miterlimit="5.6889" stroke-width="6.1312"/><rect x="6.1253" y="4068.1856" width="7823.8731" height="356.4284" stroke="#000" stroke-miterlimit="5.6889" stroke-width="6.1312"/><path d="m4090.7945,4687.0535c-2.7222,2.1121-50.7841,29.1938-50.7841,89.4119,0,69.6521,61.1568,94.2932,62.9873,94.9033-.2816,1.5019-9.7156,33.7465-32.2446,66.6013-20.0883,28.9122-41.0684,57.7774-72.9845,57.7774s-40.1297-18.5395-76.974-18.5395c-35.9056,0-48.672,19.1496-77.8658,19.1496s-49.5638-26.7532-72.9845-59.6079c-27.1286-38.5809-49.0474-98.5173-49.0474-155.403,0-91.2424,59.3263-139.6327,117.7139-139.6327,31.0243,0,56.8857,20.3699,76.3638,20.3699,18.5395,0,47.4516-21.5903,82.7471-21.5903,13.3766,0,61.4384,1.2203,93.0728,46.5599h0Zm-109.8288-85.1877c14.5969-17.3192,24.9227-41.3501,24.9227-65.381,0-3.3324-.2816-6.7118-.8918-9.434-23.7493.8918-52.0044,15.8172-69.0419,35.577-13.3766,15.2071-25.8614,39.238-25.8614,63.5974,0,3.661.6102,7.3219.8918,8.4953,1.5019.2816,3.9426.6102,6.3832.6102,21.3087,0,48.1088-14.2684,63.5974-33.4649h0Z"/></g></svg>